<?xml version="1.0" encoding="UTF-8" standalone="no"?>
<!-- Created with Inkscape (http://www.inkscape.org/) -->

<svg
   version="1.1"
   id="svg2"
   width="12"
   height="12"
   viewBox="0 0 12 12"
   sodipodi:docname="kassandra_icon.svg"
   inkscape:version="1.2.2 (b0a8486541, 2022-12-01)"
   xmlns:inkscape="http://www.inkscape.org/namespaces/inkscape"
   xmlns:sodipodi="http://sodipodi.sourceforge.net/DTD/sodipodi-0.dtd"
   xmlns="http://www.w3.org/2000/svg"
   xmlns:svg="http://www.w3.org/2000/svg">
  <defs
     id="defs6" />
  <sodipodi:namedview
     id="namedview4"
     pagecolor="#505050"
     bordercolor="#eeeeee"
     borderopacity="1"
     inkscape:showpageshadow="0"
     inkscape:pageopacity="0"
     inkscape:pagecheckerboard="0"
     inkscape:deskcolor="#505050"
     showgrid="false"
     showguides="true"
     inkscape:zoom="45.254834"
     inkscape:cx="7.3141358"
     inkscape:cy="7.7892231"
     inkscape:window-width="1920"
     inkscape:window-height="1021"
     inkscape:window-x="0"
     inkscape:window-y="29"
     inkscape:window-maximized="1"
     inkscape:current-layer="g8" />
  <g
     inkscape:groupmode="layer"
     inkscape:label="Image"
     id="g8">
    <path
       id="path3672"
       style="fill:#ffffff;fill-opacity:1;stroke:#ffffff;stroke-width:0.00752067;stroke-linecap:square;paint-order:stroke fill markers"
       d="M 5.8376897,-0.02732499 C 5.5321011,-0.02954554 4.8628446,0.01316693 4.3903407,0.39005975 3.7603355,0.8925835 3.0266855,2.1982617 2.9429917,3.2120789 2.8592979,4.2258962 2.6490734,5.7785754 4.2470594,6.1483078 2.3495739,6.7195905 2.457339,6.6054577 2.0666913,7.4502989 1.6760439,8.2951403 1.4302572,9.4345575 1.2381516,10.311773 1.046046,11.188988 0.76327537,12 1.4956427,12 2.0064804,12 6.0079661,11.9959 6.0079661,11.9959 7.5101845,11.9978 9.0139171,11.999 10.516137,12 c 0.732366,0 0.44752,-0.811012 0.255414,-1.688227 C 10.579445,9.4345575 10.335736,8.2951403 9.9450877,7.4502989 9.55444,6.6054577 9.6622049,6.7195905 7.7647197,6.1483078 9.3627057,5.7785754 9.1524815,4.2258962 9.0687875,3.2120789 8.9850935,2.1982617 8.249367,0.8925835 7.6193619,0.39005975 6.9893567,-0.11246405 6.0079661,-0.02109536 6.0079661,-0.02109536 h -0.00623 c 0,0 -0.062184,-0.0054892 -0.1640464,-0.0062296 z M 4.4422542,2.6078055 c 0.094061,-0.012584 0.1499028,0.1155309 0.4921403,0.1598936 0.4212152,0.0546 0.9588816,-0.1511764 1.401665,-0.029072 C 6.7788433,2.8607318 6.8496329,2.9566677 7.1292982,3.014807 7.2910486,3.048434 7.5430194,2.93053 7.6359742,3.095792 7.7704978,3.3349584 7.6830122,3.7886128 7.6255872,4.0136231 7.4729556,4.6117498 7.1793748,5.0343452 6.7555208,5.4796616 6.5929681,5.6504455 6.4949377,5.7084464 5.9913538,5.7080811 5.4820707,5.7077118 5.4180449,5.6340605 5.2064212,5.4588962 4.6800538,4.9967748 4.4570301,4.4261518 4.3820345,4.0551545 4.3070392,3.6841571 4.300165,3.360664 4.3135087,3.0127309 c 0.00481,-0.1252277 -0.049125,-0.3004802 0.05399,-0.3717007 0.029857,-0.020622 0.053049,-0.030321 0.074756,-0.033225 z m 0.66034,3.7336206 c 0.2765056,0.032296 0.2022724,0.1162863 0.8970657,0.1162863 0.6947934,0 0.6205601,-0.083991 0.8970657,-0.1162863 L 5.9996599,8.3203696 Z"
       sodipodi:nodetypes="ssscsssccsscssccssssssssscssssczccc" />
  </g>
</svg>
